<svg xmlns="http://www.w3.org/2000/svg" width="1800" height="1050" viewBox="0 0 1800 1050">
<style>text{font-family:Inter,Arial,Helvetica,sans-serif}.axis{font-size:18px;fill:#667077}.label{font-size:19px;fill:#1f2529}.small{font-size:16px;fill:#667077}</style>
<rect x="0.0" y="0.0" width="1800.0" height="1050.0" rx="0" fill="#fbf7f2" stroke="none" stroke-width="1" opacity="1"/>
<rect x="50.0" y="80.0" width="1700.0" height="920.0" rx="8" fill="#fffdf9" stroke="#e8ded4" stroke-width="1" opacity="1"/>
<text x="900.0" y="62.0" text-anchor="middle" font-size="34" font-weight="700" fill="#1f2529" >Annualized Return and Volatility by Asset Class</text>
<text x="900.0" y="100.0" text-anchor="middle" font-size="20" font-weight="400" fill="#667077" >2005-2025</text>
<rect x="130.0" y="220.0" width="457.1" height="660.0" rx="0" fill="#e5f5e0" stroke="none" stroke-width="1" opacity="0.42"/>
<text x="358.6" y="976.0" text-anchor="middle" font-size="20" font-weight="700" fill="#1f2529" >Stocks</text>
<rect x="587.1" y="220.0" width="457.1" height="660.0" rx="0" fill="#fff4c2" stroke="none" stroke-width="1" opacity="0.42"/>
<line x1="587.1" y1="220.0" x2="587.1" y2="915.0" stroke="#ffffff" stroke-width="5"/>
<line x1="587.1" y1="220.0" x2="587.1" y2="880.0" stroke="#d5c9bd" stroke-width="1"/>
<text x="815.7" y="976.0" text-anchor="middle" font-size="20" font-weight="700" fill="#1f2529" >Bonds</text>
<rect x="1044.3" y="220.0" width="457.1" height="660.0" rx="0" fill="#e3f2fb" stroke="none" stroke-width="1" opacity="0.42"/>
<line x1="1044.3" y1="220.0" x2="1044.3" y2="915.0" stroke="#ffffff" stroke-width="5"/>
<line x1="1044.3" y1="220.0" x2="1044.3" y2="880.0" stroke="#d5c9bd" stroke-width="1"/>
<text x="1272.9" y="976.0" text-anchor="middle" font-size="20" font-weight="700" fill="#1f2529" >Real Estate</text>
<rect x="1501.4" y="220.0" width="114.3" height="660.0" rx="0" fill="#fde6d8" stroke="none" stroke-width="1" opacity="0.42"/>
<line x1="1501.4" y1="220.0" x2="1501.4" y2="915.0" stroke="#ffffff" stroke-width="5"/>
<line x1="1501.4" y1="220.0" x2="1501.4" y2="880.0" stroke="#d5c9bd" stroke-width="1"/>
<text x="1558.6" y="976.0" text-anchor="middle" font-size="20" font-weight="700" fill="#1f2529" >Commodities</text>
<rect x="1615.7" y="220.0" width="114.3" height="660.0" rx="0" fill="#eee4f6" stroke="none" stroke-width="1" opacity="0.42"/>
<line x1="1615.7" y1="220.0" x2="1615.7" y2="915.0" stroke="#ffffff" stroke-width="5"/>
<line x1="1615.7" y1="220.0" x2="1615.7" y2="880.0" stroke="#d5c9bd" stroke-width="1"/>
<text x="1672.9" y="976.0" text-anchor="middle" font-size="20" font-weight="700" fill="#1f2529" >Gold</text>
<line x1="130.0" y1="430.0" x2="1730.0" y2="430.0" stroke="#ddd2c8" stroke-width="1"/>
<text x="112.0" y="436.0" text-anchor="end" font-size="17" font-weight="400" fill="#667077" >0%</text>
<line x1="130.0" y1="377.5" x2="1730.0" y2="377.5" stroke="#ddd2c8" stroke-width="1" stroke-dasharray="4 7"/>
<text x="112.0" y="383.5" text-anchor="end" font-size="17" font-weight="400" fill="#667077" >3%</text>
<line x1="130.0" y1="325.0" x2="1730.0" y2="325.0" stroke="#ddd2c8" stroke-width="1" stroke-dasharray="4 7"/>
<text x="112.0" y="331.0" text-anchor="end" font-size="17" font-weight="400" fill="#667077" >6%</text>
<line x1="130.0" y1="272.5" x2="1730.0" y2="272.5" stroke="#ddd2c8" stroke-width="1" stroke-dasharray="4 7"/>
<text x="112.0" y="278.5" text-anchor="end" font-size="17" font-weight="400" fill="#667077" >9%</text>
<line x1="130.0" y1="220.0" x2="1730.0" y2="220.0" stroke="#ddd2c8" stroke-width="1" stroke-dasharray="4 7"/>
<text x="112.0" y="226.0" text-anchor="end" font-size="17" font-weight="400" fill="#667077" >12%</text>
<line x1="130.0" y1="511.8" x2="1730.0" y2="511.8" stroke="#ddd2c8" stroke-width="1" stroke-dasharray="4 7"/>
<text x="112.0" y="517.8" text-anchor="end" font-size="17" font-weight="400" fill="#667077" >10%</text>
<line x1="130.0" y1="593.6" x2="1730.0" y2="593.6" stroke="#ddd2c8" stroke-width="1" stroke-dasharray="4 7"/>
<text x="112.0" y="599.6" text-anchor="end" font-size="17" font-weight="400" fill="#667077" >20%</text>
<line x1="130.0" y1="675.5" x2="1730.0" y2="675.5" stroke="#ddd2c8" stroke-width="1" stroke-dasharray="4 7"/>
<text x="112.0" y="681.5" text-anchor="end" font-size="17" font-weight="400" fill="#667077" >30%</text>
<line x1="130.0" y1="757.3" x2="1730.0" y2="757.3" stroke="#ddd2c8" stroke-width="1" stroke-dasharray="4 7"/>
<text x="112.0" y="763.3" text-anchor="end" font-size="17" font-weight="400" fill="#667077" >40%</text>
<line x1="130.0" y1="839.1" x2="1730.0" y2="839.1" stroke="#ddd2c8" stroke-width="1" stroke-dasharray="4 7"/>
<text x="112.0" y="845.1" text-anchor="end" font-size="17" font-weight="400" fill="#667077" >50%</text>
<line x1="130.0" y1="430.0" x2="1730.0" y2="430.0" stroke="#33383b" stroke-width="2"/>
<line x1="130.0" y1="220.0" x2="130.0" y2="880.0" stroke="#33383b" stroke-width="1.5"/>
<text x="62.0" y="325.0" text-anchor="middle" font-size="20" font-weight="700" fill="#1f2529" transform="rotate(-90 62 325.0)">Annualized Return</text>
<text x="62.0" y="655.0" text-anchor="middle" font-size="20" font-weight="700" fill="#1f2529" transform="rotate(-90 62 655.0)">Annualized Volatility</text>
<text x="112.0" y="420.0" text-anchor="end" font-size="17" font-weight="700" fill="#1f2529" >0%</text>
<rect x="158.1" y="241.0" width="58.0" height="189.0" rx="2" fill="#006d2c" stroke="none" stroke-width="1" opacity="1"/>
<rect x="158.1" y="430.0" width="58.0" height="135.0" rx="2" fill="#cfd3d2" stroke="none" stroke-width="1" opacity="1"/>
<text x="187.1" y="230.0" text-anchor="middle" font-size="17" font-weight="700" fill="#004b1f" >10.8%</text>
<text x="187.1" y="589.0" text-anchor="middle" font-size="17" font-weight="700" fill="#9da6a5" >16.5%</text>
<text x="187.1" y="922.0" text-anchor="middle" font-size="16" font-weight="500" fill="#1f2529" >U.S.</text>
<rect x="272.4" y="279.5" width="58.0" height="150.5" rx="2" fill="#31a354" stroke="none" stroke-width="1" opacity="1"/>
<rect x="272.4" y="430.0" width="58.0" height="144.8" rx="2" fill="#cfd3d2" stroke="none" stroke-width="1" opacity="1"/>
<text x="301.4" y="268.5" text-anchor="middle" font-size="17" font-weight="700" fill="#23743c" >8.6%</text>
<text x="301.4" y="598.8" text-anchor="middle" font-size="17" font-weight="700" fill="#9da6a5" >17.7%</text>
<text x="301.4" y="922.0" text-anchor="middle" font-size="16" font-weight="500" fill="#1f2529" >Germany</text>
<rect x="386.7" y="269.0" width="58.0" height="161.0" rx="2" fill="#74c476" stroke="none" stroke-width="1" opacity="1"/>
<rect x="386.7" y="430.0" width="58.0" height="174.3" rx="2" fill="#cfd3d2" stroke="none" stroke-width="1" opacity="1"/>
<text x="415.7" y="258.0" text-anchor="middle" font-size="17" font-weight="700" fill="#458047" >9.2%</text>
<text x="415.7" y="628.3" text-anchor="middle" font-size="17" font-weight="700" fill="#9da6a5" >21.3%</text>
<text x="415.7" y="922.0" text-anchor="middle" font-size="16" font-weight="500" fill="#1f2529" >Japan</text>
<rect x="501.0" y="262.0" width="58.0" height="168.0" rx="2" fill="#a1d99b" stroke="none" stroke-width="1" opacity="1"/>
<rect x="501.0" y="430.0" width="58.0" height="427.1" rx="2" fill="#cfd3d2" stroke="none" stroke-width="1" opacity="1"/>
<text x="530.0" y="251.0" text-anchor="middle" font-size="17" font-weight="700" fill="#5f8d5b" >9.6%</text>
<text x="530.0" y="881.1" text-anchor="middle" font-size="17" font-weight="700" fill="#9da6a5" >52.2%</text>
<text x="530.0" y="922.0" text-anchor="middle" font-size="16" font-weight="500" fill="#1f2529" >China</text>
<rect x="615.3" y="358.2" width="58.0" height="71.7" rx="2" fill="#b8860b" stroke="none" stroke-width="1" opacity="1"/>
<rect x="615.3" y="430.0" width="58.0" height="90.8" rx="2" fill="#cfd3d2" stroke="none" stroke-width="1" opacity="1"/>
<text x="644.3" y="347.2" text-anchor="middle" font-size="17" font-weight="700" fill="#8f6708" >4.1%</text>
<text x="644.3" y="544.8" text-anchor="middle" font-size="17" font-weight="700" fill="#9da6a5" >11.1%</text>
<text x="644.3" y="922.0" text-anchor="middle" font-size="16" font-weight="500" fill="#1f2529" >U.S.</text>
<rect x="729.6" y="393.2" width="58.0" height="36.8" rx="2" fill="#d8b365" stroke="none" stroke-width="1" opacity="1"/>
<rect x="729.6" y="430.0" width="58.0" height="45.0" rx="2" fill="#cfd3d2" stroke="none" stroke-width="1" opacity="1"/>
<text x="758.6" y="382.2" text-anchor="middle" font-size="17" font-weight="700" fill="#9b7b37" >2.1%</text>
<text x="758.6" y="499.0" text-anchor="middle" font-size="17" font-weight="700" fill="#9da6a5" >5.5%</text>
<text x="758.6" y="922.0" text-anchor="middle" font-size="16" font-weight="500" fill="#1f2529" >Germany</text>
<rect x="843.9" y="391.5" width="58.0" height="38.5" rx="2" fill="#e8cf6a" stroke="none" stroke-width="1" opacity="1"/>
<rect x="843.9" y="430.0" width="58.0" height="33.5" rx="2" fill="#cfd3d2" stroke="none" stroke-width="1" opacity="1"/>
<text x="872.9" y="380.5" text-anchor="middle" font-size="17" font-weight="700" fill="#9a8231" >2.2%</text>
<text x="872.9" y="487.5" text-anchor="middle" font-size="17" font-weight="700" fill="#9da6a5" >4.1%</text>
<text x="872.9" y="922.0" text-anchor="middle" font-size="16" font-weight="500" fill="#1f2529" >Japan</text>
<rect x="958.1" y="354.8" width="58.0" height="75.2" rx="2" fill="#f1c232" stroke="none" stroke-width="1" opacity="1"/>
<rect x="958.1" y="430.0" width="58.0" height="30.3" rx="2" fill="#cfd3d2" stroke="none" stroke-width="1" opacity="1"/>
<text x="987.1" y="343.8" text-anchor="middle" font-size="17" font-weight="700" fill="#a37f10" >4.3%</text>
<text x="987.1" y="484.3" text-anchor="middle" font-size="17" font-weight="700" fill="#9da6a5" >3.7%</text>
<text x="987.1" y="922.0" text-anchor="middle" font-size="16" font-weight="500" fill="#1f2529" >China</text>
<rect x="1072.4" y="277.8" width="58.0" height="152.2" rx="2" fill="#08519c" stroke="none" stroke-width="1" opacity="1"/>
<rect x="1072.4" y="430.0" width="58.0" height="45.0" rx="2" fill="#cfd3d2" stroke="none" stroke-width="1" opacity="1"/>
<text x="1101.4" y="266.8" text-anchor="middle" font-size="17" font-weight="700" fill="#063968" >8.7%</text>
<text x="1101.4" y="499.0" text-anchor="middle" font-size="17" font-weight="700" fill="#9da6a5" >5.5%</text>
<text x="1101.4" y="922.0" text-anchor="middle" font-size="16" font-weight="500" fill="#1f2529" >U.S.</text>
<rect x="1186.7" y="290.0" width="58.0" height="140.0" rx="2" fill="#3182bd" stroke="none" stroke-width="1" opacity="1"/>
<rect x="1186.7" y="430.0" width="58.0" height="36.8" rx="2" fill="#cfd3d2" stroke="none" stroke-width="1" opacity="1"/>
<text x="1215.7" y="279.0" text-anchor="middle" font-size="17" font-weight="700" fill="#225b84" >8.0%</text>
<text x="1215.7" y="490.8" text-anchor="middle" font-size="17" font-weight="700" fill="#9da6a5" >4.5%</text>
<text x="1215.7" y="922.0" text-anchor="middle" font-size="16" font-weight="500" fill="#1f2529" >Germany</text>
<rect x="1301.0" y="325.0" width="58.0" height="105.0" rx="2" fill="#6baed6" stroke="none" stroke-width="1" opacity="1"/>
<rect x="1301.0" y="430.0" width="58.0" height="31.1" rx="2" fill="#cfd3d2" stroke="none" stroke-width="1" opacity="1"/>
<text x="1330.0" y="314.0" text-anchor="middle" font-size="17" font-weight="700" fill="#43758f" >6.0%</text>
<text x="1330.0" y="485.1" text-anchor="middle" font-size="17" font-weight="700" fill="#9da6a5" >3.8%</text>
<text x="1330.0" y="922.0" text-anchor="middle" font-size="16" font-weight="500" fill="#1f2529" >Japan</text>
<rect x="1415.3" y="242.8" width="58.0" height="187.2" rx="2" fill="#9ecae1" stroke="none" stroke-width="1" opacity="1"/>
<rect x="1415.3" y="430.0" width="58.0" height="99.8" rx="2" fill="#cfd3d2" stroke="none" stroke-width="1" opacity="1"/>
<text x="1444.3" y="231.8" text-anchor="middle" font-size="17" font-weight="700" fill="#5f8295" >10.7%</text>
<text x="1444.3" y="553.8" text-anchor="middle" font-size="17" font-weight="700" fill="#9da6a5" >12.2%</text>
<text x="1444.3" y="922.0" text-anchor="middle" font-size="16" font-weight="500" fill="#1f2529" >China</text>
<rect x="1529.6" y="346.0" width="58.0" height="84.0" rx="2" fill="#c7a2d8" stroke="none" stroke-width="1" opacity="1"/>
<rect x="1529.6" y="430.0" width="58.0" height="198.8" rx="2" fill="#cfd3d2" stroke="none" stroke-width="1" opacity="1"/>
<text x="1558.6" y="335.0" text-anchor="middle" font-size="17" font-weight="700" fill="#7b4d95" >4.8%</text>
<text x="1558.6" y="652.8" text-anchor="middle" font-size="17" font-weight="700" fill="#9da6a5" >24.3%</text>
<text x="1558.6" y="922.0" text-anchor="middle" font-size="16" font-weight="500" fill="#1f2529" >Commodity</text>
<text x="1558.6" y="942.0" text-anchor="middle" font-size="16" font-weight="500" fill="#1f2529" >Equal Weight</text>
<text x="1558.6" y="962.0" text-anchor="middle" font-size="16" font-weight="500" fill="#1f2529" >Index</text>
<rect x="1643.9" y="228.8" width="58.0" height="201.2" rx="2" fill="#7b3294" stroke="none" stroke-width="1" opacity="1"/>
<rect x="1643.9" y="430.0" width="58.0" height="150.5" rx="2" fill="#cfd3d2" stroke="none" stroke-width="1" opacity="1"/>
<text x="1672.9" y="217.8" text-anchor="middle" font-size="17" font-weight="700" fill="#5e2571" >11.5%</text>
<text x="1672.9" y="604.5" text-anchor="middle" font-size="17" font-weight="700" fill="#9da6a5" >18.4%</text>
<text x="1672.9" y="922.0" text-anchor="middle" font-size="16" font-weight="500" fill="#1f2529" >Gold</text>
<text x="1672.9" y="942.0" text-anchor="middle" font-size="16" font-weight="500" fill="#1f2529" >(Post-Bretton</text>
<text x="1672.9" y="962.0" text-anchor="middle" font-size="16" font-weight="500" fill="#1f2529" >Woods)</text>
<text x="112.0" y="906.0" text-anchor="end" font-size="14" font-weight="700" fill="#667077" >Sharpe</text>
<text x="187.1" y="906.0" text-anchor="middle" font-size="14" font-weight="700" fill="#667077" >SR 0.55</text>
<text x="301.4" y="906.0" text-anchor="middle" font-size="14" font-weight="700" fill="#667077" >SR 0.42</text>
<text x="415.7" y="906.0" text-anchor="middle" font-size="14" font-weight="700" fill="#667077" >SR 0.42</text>
<text x="530.0" y="906.0" text-anchor="middle" font-size="14" font-weight="700" fill="#667077" >SR 0.14</text>
<text x="644.3" y="906.0" text-anchor="middle" font-size="14" font-weight="700" fill="#667077" >SR 0.21</text>
<text x="758.6" y="906.0" text-anchor="middle" font-size="14" font-weight="700" fill="#667077" >SR 0.16</text>
<text x="872.9" y="906.0" text-anchor="middle" font-size="14" font-weight="700" fill="#667077" >SR 0.51</text>
<text x="987.1" y="906.0" text-anchor="middle" font-size="14" font-weight="700" fill="#667077" >SR 0.51</text>
<text x="1101.4" y="906.0" text-anchor="middle" font-size="14" font-weight="700" fill="#667077" >SR 1.27</text>
<text x="1215.7" y="906.0" text-anchor="middle" font-size="14" font-weight="700" fill="#667077" >SR 1.52</text>
<text x="1330.0" y="906.0" text-anchor="middle" font-size="14" font-weight="700" fill="#667077" >SR 1.55</text>
<text x="1444.3" y="906.0" text-anchor="middle" font-size="14" font-weight="700" fill="#667077" >SR 0.68</text>
<text x="1558.6" y="906.0" text-anchor="middle" font-size="14" font-weight="700" fill="#667077" >SR 0.13</text>
<text x="1672.9" y="906.0" text-anchor="middle" font-size="14" font-weight="700" fill="#667077" >SR 0.53</text>
<rect x="1300.0" y="104.0" width="5.6" height="16.0" rx="0" fill="#006d2c" stroke="none" stroke-width="1" opacity="1"/>
<rect x="1305.6" y="104.0" width="5.6" height="16.0" rx="0" fill="#b8860b" stroke="none" stroke-width="1" opacity="1"/>
<rect x="1311.2" y="104.0" width="5.6" height="16.0" rx="0" fill="#08519c" stroke="none" stroke-width="1" opacity="1"/>
<rect x="1316.8" y="104.0" width="5.6" height="16.0" rx="0" fill="#c7a2d8" stroke="none" stroke-width="1" opacity="1"/>
<rect x="1322.4" y="104.0" width="5.6" height="16.0" rx="0" fill="#7b3294" stroke="none" stroke-width="1" opacity="1"/>
<text x="1340.0" y="118.0" text-anchor="start" font-size="17" font-weight="500" fill="#1f2529" >Annualized return</text>
<rect x="1510.0" y="104.0" width="28.0" height="16.0" rx="2" fill="#cfd3d2" stroke="none" stroke-width="1" opacity="1"/>
<text x="1550.0" y="118.0" text-anchor="start" font-size="17" font-weight="500" fill="#1f2529" >Annualized volatility</text>
<text x="130.0" y="1006.0" text-anchor="start" font-size="16" font-weight="400" fill="#667077" >Note: All returns are gross returns denominated in local currency.</text>
<text x="1730.0" y="1006.0" text-anchor="end" font-size="16" font-weight="400" fill="#667077" >Source: JST database, Wind, Bloomberg, iFinD, Haver, WGC, CICC</text>
</svg>
