<svg xmlns="http://www.w3.org/2000/svg" width="1000" height="600" viewBox="0 0 1000 600">
<style>text{font-family:Inter,Arial,Helvetica,sans-serif}</style>
<rect width="100%" height="100%" fill="#fffdf8"/>
<text x="500.0" y="26.0" font-size="23" fill="#182025" font-weight="760" text-anchor="middle">Dollar-cost averaging: accumulated value per dollar contributed</text>
<text x="500.0" y="50.0" font-size="14" fill="#667077" font-weight="400" text-anchor="middle">Monthly contributions, 2005-2025; rankings can differ from lump-sum annualized returns because cash is invested over time</text>
<line x1="78" y1="482.8" x2="780" y2="482.8" stroke="#e5ddd4" stroke-width="1" stroke-dasharray="4 6"/>
<text x="66.0" y="487.8" font-size="14" fill="#667077" font-weight="400" text-anchor="end">1.0x</text>
<line x1="78" y1="428.5" x2="780" y2="428.5" stroke="#e5ddd4" stroke-width="1" stroke-dasharray="4 6"/>
<text x="66.0" y="433.5" font-size="14" fill="#667077" font-weight="400" text-anchor="end">1.5x</text>
<line x1="78" y1="374.2" x2="780" y2="374.2" stroke="#e5ddd4" stroke-width="1" stroke-dasharray="4 6"/>
<text x="66.0" y="379.2" font-size="14" fill="#667077" font-weight="400" text-anchor="end">2.0x</text>
<line x1="78" y1="319.9" x2="780" y2="319.9" stroke="#e5ddd4" stroke-width="1" stroke-dasharray="4 6"/>
<text x="66.0" y="324.9" font-size="14" fill="#667077" font-weight="400" text-anchor="end">2.5x</text>
<line x1="78" y1="265.6" x2="780" y2="265.6" stroke="#e5ddd4" stroke-width="1" stroke-dasharray="4 6"/>
<text x="66.0" y="270.6" font-size="14" fill="#667077" font-weight="400" text-anchor="end">3.0x</text>
<line x1="78" y1="211.2" x2="780" y2="211.2" stroke="#e5ddd4" stroke-width="1" stroke-dasharray="4 6"/>
<text x="66.0" y="216.2" font-size="14" fill="#667077" font-weight="400" text-anchor="end">3.5x</text>
<line x1="78" y1="156.9" x2="780" y2="156.9" stroke="#e5ddd4" stroke-width="1" stroke-dasharray="4 6"/>
<text x="66.0" y="161.9" font-size="14" fill="#667077" font-weight="400" text-anchor="end">4.0x</text>
<line x1="78" y1="102.6" x2="780" y2="102.6" stroke="#e5ddd4" stroke-width="1" stroke-dasharray="4 6"/>
<text x="66.0" y="107.6" font-size="14" fill="#667077" font-weight="400" text-anchor="end">4.5x</text>
<line x1="78" y1="70" x2="78" y2="510" stroke="#3a4146" stroke-width="1.5"/>
<line x1="78" y1="510" x2="780" y2="510" stroke="#3a4146" stroke-width="1.5"/>
<line x1="78.0" y1="510" x2="78.0" y2="516" stroke="#3a4146"/>
<text x="78.0" y="538.0" font-size="14" fill="#667077" font-weight="500" text-anchor="middle">2005</text>
<line x1="253.5" y1="510" x2="253.5" y2="516" stroke="#3a4146"/>
<text x="253.5" y="538.0" font-size="14" fill="#667077" font-weight="500" text-anchor="middle">2010</text>
<line x1="429.0" y1="510" x2="429.0" y2="516" stroke="#3a4146"/>
<text x="429.0" y="538.0" font-size="14" fill="#667077" font-weight="500" text-anchor="middle">2015</text>
<line x1="604.5" y1="510" x2="604.5" y2="516" stroke="#3a4146"/>
<text x="604.5" y="538.0" font-size="14" fill="#667077" font-weight="500" text-anchor="middle">2020</text>
<line x1="780.0" y1="510" x2="780.0" y2="516" stroke="#3a4146"/>
<text x="780.0" y="538.0" font-size="14" fill="#667077" font-weight="500" text-anchor="middle">2025</text>
<text x="24" y="290.0" transform="rotate(-90 24 290.0)" font-size="14" fill="#667077" font-weight="700" text-anchor="middle">Value / cumulative contributions</text>
<polyline points="78.0,479.2 113.1,467.8 148.2,466.9 183.3,512.0 218.4,484.9 253.5,468.7 288.6,469.0 323.7,452.0 358.8,412.3 393.9,397.3 429.0,403.4 464.1,388.6 499.2,354.3 534.3,374.2 569.4,316.6 604.5,272.1 639.6,204.0 674.7,290.0 709.8,223.7 744.9,150.4 780.0,92.6" fill="none" stroke="#0b7a35" stroke-width="3" stroke-linejoin="round" stroke-linecap="round"/>
<circle cx="780.0" cy="92.6" r="3.7" fill="#0b7a35"/>
<polyline points="78.0,475.0 113.1,456.2 148.2,452.8 183.3,512.4 218.4,482.8 253.5,475.0 288.6,489.2 323.7,471.7 358.8,447.2 393.9,457.4 429.0,460.7 464.1,461.3 499.2,431.9 534.3,456.6 569.4,429.8 604.5,421.0 639.6,406.1 674.7,436.2 709.8,411.4 744.9,408.3 780.0,356.6" fill="none" stroke="#78c679" stroke-width="3" stroke-linejoin="round" stroke-linecap="round"/>
<circle cx="780.0" cy="356.6" r="3.7" fill="#78c679"/>
<polyline points="78.0,463.7 113.1,443.7 148.2,410.6 183.3,509.7 218.4,444.6 253.5,426.0 288.6,461.8 323.7,442.5 358.8,450.6 393.9,456.7 429.0,478.2 464.1,466.4 499.2,423.0 534.3,450.7 569.4,428.0 604.5,402.7 639.6,412.0 674.7,450.7 709.8,439.0 744.9,430.1 780.0,380.1" fill="none" stroke="#b7db4a" stroke-width="3" stroke-linejoin="round" stroke-linecap="round"/>
<circle cx="780.0" cy="380.1" r="3.7" fill="#b7db4a"/>
<polyline points="78.0,481.4 113.1,478.5 148.2,473.3 183.3,470.3 218.4,466.4 253.5,461.8 288.6,455.5 323.7,453.6 358.8,459.4 393.9,454.3 429.0,456.2 464.1,455.1 499.2,452.7 534.3,454.8 569.4,445.2 604.5,437.0 639.6,442.0 674.7,463.0 709.8,457.2 744.9,456.8 780.0,448.5" fill="none" stroke="#f0b429" stroke-width="3" stroke-linejoin="round" stroke-linecap="round"/>
<circle cx="780.0" cy="448.5" r="3.7" fill="#f0b429"/>
<polyline points="78.0,475.8 113.1,448.5 148.2,479.4 183.3,518.2 218.4,491.1 253.5,463.2 288.6,455.7 323.7,436.7 358.8,438.2 393.9,399.0 429.0,402.1 464.1,393.5 499.2,390.8 534.3,406.2 569.4,365.7 604.5,389.4 639.6,311.5 674.7,386.6 709.8,364.7 744.9,351.4 780.0,350.9" fill="none" stroke="#0f5a9d" stroke-width="3" stroke-linejoin="round" stroke-linecap="round"/>
<circle cx="780.0" cy="350.9" r="3.7" fill="#0f5a9d"/>
<polyline points="78.0,470.6 113.1,474.8 148.2,461.8 183.3,507.3 218.4,487.5 253.5,470.5 288.6,487.2 323.7,487.8 358.8,496.6 393.9,510.8 429.0,527.7 464.1,516.5 499.2,512.7 534.3,519.2 569.4,511.3 604.5,512.0 639.6,489.1 674.7,472.6 709.8,482.3 744.9,476.6 780.0,459.2" fill="none" stroke="#c7a2d8" stroke-width="3" stroke-linejoin="round" stroke-linecap="round"/>
<circle cx="780.0" cy="459.2" r="3.7" fill="#c7a2d8"/>
<polyline points="78.0,473.0 113.1,457.0 148.2,431.3 183.3,439.6 218.4,411.6 253.5,379.3 288.6,372.1 323.7,374.6 358.8,442.1 393.9,446.5 429.0,465.4 464.1,455.9 499.2,442.6 534.3,447.0 569.4,423.3 604.5,388.0 639.6,401.0 674.7,406.3 709.8,385.7 744.9,337.8 780.0,186.0" fill="none" stroke="#7b3294" stroke-width="3" stroke-linejoin="round" stroke-linecap="round"/>
<circle cx="780.0" cy="186.0" r="3.7" fill="#7b3294"/>
<polyline points="78.0,481.1 113.1,477.9 148.2,475.0 183.3,475.1 218.4,476.6 253.5,477.5 288.6,478.2 323.7,478.6 358.8,479.1 393.9,479.5 429.0,479.8 464.1,479.7 499.2,479.1 534.3,477.4 569.4,475.3 604.5,475.2 639.6,475.7 674.7,474.4 709.8,469.0 744.9,463.4 780.0,459.0" fill="none" stroke="#c7322b" stroke-width="3" stroke-linejoin="round" stroke-linecap="round"/>
<circle cx="780.0" cy="459.0" r="3.7" fill="#c7322b"/>
<text x="804.0" y="88.0" font-size="15" fill="#182025" font-weight="760" text-anchor="start">Ending value</text>
<line x1="804" y1="116" x2="824" y2="116" stroke="#0b7a35" stroke-width="4"/>
<text x="832.0" y="121.0" font-size="13" fill="#182025" font-weight="600" text-anchor="start">U.S. Large Cap 4.59x</text>
<line x1="804" y1="140" x2="824" y2="140" stroke="#7b3294" stroke-width="4"/>
<text x="832.0" y="145.0" font-size="13" fill="#182025" font-weight="600" text-anchor="start">Gold 3.73x</text>
<line x1="804" y1="164" x2="824" y2="164" stroke="#0f5a9d" stroke-width="4"/>
<text x="832.0" y="169.0" font-size="13" fill="#182025" font-weight="600" text-anchor="start">U.S. REITs 2.21x</text>
<line x1="804" y1="188" x2="824" y2="188" stroke="#78c679" stroke-width="4"/>
<text x="832.0" y="193.0" font-size="13" fill="#182025" font-weight="600" text-anchor="start">Intl Dev Stocks 2.16x</text>
<line x1="804" y1="212" x2="824" y2="212" stroke="#b7db4a" stroke-width="4"/>
<text x="832.0" y="217.0" font-size="13" fill="#182025" font-weight="600" text-anchor="start">Emerging Stocks 1.95x</text>
<line x1="804" y1="236" x2="824" y2="236" stroke="#f0b429" stroke-width="4"/>
<text x="832.0" y="241.0" font-size="13" fill="#182025" font-weight="600" text-anchor="start">U.S. Bonds 1.32x</text>
<line x1="804" y1="260" x2="824" y2="260" stroke="#c7322b" stroke-width="4"/>
<text x="832.0" y="265.0" font-size="13" fill="#182025" font-weight="600" text-anchor="start">Cash 1.22x</text>
<line x1="804" y1="284" x2="824" y2="284" stroke="#c7a2d8" stroke-width="4"/>
<text x="832.0" y="289.0" font-size="13" fill="#182025" font-weight="600" text-anchor="start">Commodities 1.22x</text>
<text x="78.0" y="582.0" font-size="13" fill="#667077" font-weight="400" text-anchor="start">DCA result reflects sequence and timing of contributions, not a lump-sum annualized return ranking.</text>
</svg>