<svg xmlns="http://www.w3.org/2000/svg" viewBox="0 0 240 72" role="img" aria-labelledby="title">
  <title id="title">Wealthfront</title>
  <rect width="240" height="72" fill="#ffffff"/>
  <path d="M22 47 C14 41 10 34 9 25 C16 27 23 31 29 38 C27 41 25 44 22 47Z" fill="#5141c9"/>
  <path d="M34 49 C25 41 20 31 19 20 C27 22 35 27 42 35 C40 40 37 45 34 49Z" fill="#5141c9"/>
  <path d="M47 49 C39 39 35 27 36 16 C44 19 51 24 57 32 C55 38 51 44 47 49Z" fill="#5141c9"/>
  <text x="143" y="48" text-anchor="middle" font-family="Inter, Arial, sans-serif" font-size="36" font-weight="800" fill="#5141c9">Wealthfront</text>
</svg>
