<svg xmlns="http://www.w3.org/2000/svg" width="660" height="300" viewBox="0 0 660 300">
  <style>
    text{font-family:Inter,Arial,Helvetica,sans-serif}
    .title{font-size:18px;font-weight:780;fill:#1d2429}
    .sub{font-size:11px;fill:#667077}
    .axis{font-size:10px;fill:#667077}
    .legend{font-size:10px;fill:#3b454b;font-weight:680}
  </style>
  <rect width="620" height="300" rx="8" fill="#fffdf8"/>
  <text x="18" y="27" class="title">Different hedge fund strategies compound differently through cycles</text>
  <text x="18" y="45" class="sub">Growth of $100, 2016-2025, based on supplied annual HFRI strategy returns</text>
  <g stroke="#e5ddd3" stroke-width="1">
    <line x1="48" y1="250" x2="590" y2="250"/>
    <line x1="48" y1="207.5" x2="590" y2="207.5" stroke-dasharray="2 4"/>
    <line x1="48" y1="165" x2="590" y2="165" stroke-dasharray="2 4"/>
    <line x1="48" y1="122.5" x2="590" y2="122.5" stroke-dasharray="2 4"/>
    <line x1="48" y1="80" x2="590" y2="80" stroke-dasharray="2 4"/>
  </g>
  <g class="axis">
    <text x="38" y="253" text-anchor="end">80</text><text x="38" y="210.5" text-anchor="end">120</text><text x="38" y="168" text-anchor="end">160</text><text x="38" y="125.5" text-anchor="end">200</text><text x="38" y="83" text-anchor="end">240</text>
    <text x="48" y="273">2016</text><text x="167" y="273">2018</text><text x="286" y="273">2020</text><text x="405" y="273">2022</text><text x="524" y="273">2024</text>
  </g>
  <polyline points="48,225.0 107.6,211.0 167.1,218.7 226.7,204.2 286.2,181.6 345.8,166.3 405.3,181.5 464.9,162.3 524.4,144.7 584,109.4" fill="none" stroke="#0b61a8" stroke-width="2.5" stroke-linejoin="round" stroke-linecap="round"/>
  <polyline points="48,219.4 107.6,210.8 167.1,215.1 226.7,204.0 286.2,194.5 345.8,181.3 405.3,191.3 464.9,174.5 524.4,157.8 584,137.9" fill="none" stroke="#1699d6" stroke-width="2.5" stroke-linejoin="round" stroke-linecap="round"/>
  <polyline points="48,229.0 107.6,226.6 167.1,230.6 226.7,224.1 286.2,219.0 345.8,210.6 405.3,199.7 464.9,193.5 524.4,186.2 584,176.4" fill="none" stroke="#b8860b" stroke-width="2.5" stroke-linejoin="round" stroke-linecap="round"/>
  <polyline points="48,222.0 107.6,216.0 167.1,218.7 226.7,210.6 286.2,206.8 345.8,198.8 405.3,199.9 464.9,191.1 524.4,181.7 584,170.3" fill="none" stroke="#3c9f91" stroke-width="2.5" stroke-linejoin="round" stroke-linecap="round"/>
  <polyline points="48,224.6 107.6,215.5 167.1,220.1 226.7,209.1 286.2,196.9 345.8,184.1 405.3,188.9 464.9,174.5 524.4,160.2 584,135.6" fill="none" stroke="#865ed6" stroke-width="3" stroke-linejoin="round" stroke-linecap="round"/>
  <g>
    <circle cx="584" cy="109.4" r="3" fill="#0b61a8"/>
    <line x1="584" y1="109.4" x2="594" y2="109.4" stroke="#0b61a8" stroke-width="1.5"/>
    <text x="596" y="112.5" class="legend" fill="#0b61a8">Equity Hedge</text>
    <circle cx="584" cy="137.9" r="3" fill="#1699d6"/>
    <line x1="584" y1="137.9" x2="594" y2="137.9" stroke="#1699d6" stroke-width="1.5"/>
    <text x="596" y="141" class="legend" fill="#1699d6">Event-Driven</text>
    <circle cx="584" cy="135.6" r="3" fill="#865ed6"/>
    <line x1="584" y1="135.6" x2="594" y2="128" stroke="#865ed6" stroke-width="1.5"/>
    <text x="596" y="131" class="legend" fill="#865ed6">HFRI Composite</text>
    <circle cx="584" cy="170.3" r="3" fill="#3c9f91"/>
    <line x1="584" y1="170.3" x2="594" y2="160" stroke="#3c9f91" stroke-width="1.5"/>
    <text x="596" y="163" class="legend" fill="#3c9f91">Relative Value</text>
    <circle cx="584" cy="176.4" r="3" fill="#b8860b"/>
    <line x1="584" y1="176.4" x2="594" y2="186" stroke="#b8860b" stroke-width="1.5"/>
    <text x="596" y="189" class="legend" fill="#b8860b">Macro</text>
  </g>
</svg>
