<svg xmlns="http://www.w3.org/2000/svg" width="620" height="600" viewBox="0 0 620 600">
  <rect width="620" height="600" rx="14" fill="#ffffff"/>
  <text x="28" y="38" font-family="Arial, Helvetica, sans-serif" font-size="22" font-weight="700" fill="#182025">Illustrative Secondary Fund Product</text>
  <text x="28" y="64" font-family="Arial, Helvetica, sans-serif" font-size="13" fill="#5d6970">Example seasoned fund interests available through a feeder / secondary vehicle</text>

  <g font-family="Arial, Helvetica, sans-serif">
    <line x1="20" y1="102" x2="600" y2="102" stroke="#333333" stroke-width="1.2"/>
    <text x="28" y="86" font-size="24" font-weight="700" fill="#1595a3">Fund<tspan baseline-shift="super" font-size="14">(1)</tspan></text>
    <text x="300" y="86" font-size="24" font-weight="700" text-anchor="middle" fill="#1595a3">Vintage</text>
    <text x="510" y="86" font-size="24" font-weight="700" text-anchor="middle" fill="#1595a3">Net IRR</text>

    <g font-size="27" fill="#4a4a4a">
      <line x1="20" y1="169" x2="600" y2="169" stroke="#5f5f5f" stroke-width="1"/>
      <text x="28" y="146" font-weight="700">Fund I<tspan baseline-shift="super" font-size="16">(a)</tspan></text>
      <text x="300" y="146" text-anchor="middle">2013</text>
      <text x="510" y="146" text-anchor="middle">37.2%</text>

      <line x1="20" y1="236" x2="600" y2="236" stroke="#5f5f5f" stroke-width="1"/>
      <text x="28" y="213" font-weight="700">Fund II<tspan baseline-shift="super" font-size="16">(a)</tspan></text>
      <text x="300" y="213" text-anchor="middle">2014</text>
      <text x="510" y="213" text-anchor="middle">38.0%</text>

      <line x1="20" y1="303" x2="600" y2="303" stroke="#5f5f5f" stroke-width="1"/>
      <text x="28" y="280" font-weight="700">Fund III<tspan baseline-shift="super" font-size="16">(b)</tspan></text>
      <text x="300" y="280" text-anchor="middle">2015</text>
      <text x="510" y="280" text-anchor="middle">42.9%</text>

      <line x1="20" y1="370" x2="600" y2="370" stroke="#5f5f5f" stroke-width="1"/>
      <text x="28" y="347" font-weight="700">Fund IV<tspan baseline-shift="super" font-size="16">(c)</tspan></text>
      <text x="300" y="347" text-anchor="middle">2018</text>
      <text x="510" y="347" text-anchor="middle">9.6%<tspan baseline-shift="super" font-size="16">(d)</tspan></text>

      <line x1="20" y1="437" x2="600" y2="437" stroke="#5f5f5f" stroke-width="1"/>
      <text x="28" y="414" font-weight="700">Fund V<tspan baseline-shift="super" font-size="16">(c)</tspan></text>
      <text x="300" y="414" text-anchor="middle">2020</text>
      <text x="510" y="414" text-anchor="middle">(-11.5%)<tspan baseline-shift="super" font-size="16">(d)</tspan></text>

      <line x1="20" y1="504" x2="600" y2="504" stroke="#5f5f5f" stroke-width="1"/>
      <text x="28" y="481" font-weight="700">Fund VI<tspan baseline-shift="super" font-size="16">(c)</tspan></text>
      <text x="300" y="481" text-anchor="middle">2022</text>
      <text x="510" y="481" text-anchor="middle">55.8%<tspan baseline-shift="super" font-size="16">(d)</tspan></text>

      <line x1="20" y1="571" x2="600" y2="571" stroke="#5f5f5f" stroke-width="1"/>
      <text x="28" y="548" font-weight="700">Fund VII<tspan baseline-shift="super" font-size="16">(c)</tspan></text>
      <text x="300" y="548" text-anchor="middle">2025</text>
      <text x="510" y="548" text-anchor="middle">121.3%<tspan baseline-shift="super" font-size="16">(3)</tspan></text>
    </g>
  </g>
</svg>
