<svg xmlns="http://www.w3.org/2000/svg" width="820" height="300" viewBox="0 0 820 300">
<style>text{font-family:Inter,Arial,Helvetica,sans-serif}</style><rect width="100%" height="100%" fill="#fffdf8"/>
<text x="58.0" y="22.0" font-size="18" fill="#182025" font-weight="760" text-anchor="start">Commodity supercycles: surges are often followed by large drawdowns</text>
<rect x="140.7" y="34" width="23.6" height="222" fill="#fde6c8" opacity="0.75"/>
<rect x="489.0" y="34" width="47.2" height="222" fill="#e9ecec" opacity="0.75"/>
<rect x="648.4" y="34" width="64.9" height="222" fill="#f8d7da" opacity="0.75"/>
<line x1="58" y1="214.9" x2="796" y2="214.9" stroke="#e5ddd4" stroke-dasharray="4 6"/>
<text x="48.0" y="219.9" font-size="12" fill="#667077" font-weight="400" text-anchor="end">100</text>
<line x1="58" y1="173.8" x2="796" y2="173.8" stroke="#e5ddd4" stroke-dasharray="4 6"/>
<text x="48.0" y="178.8" font-size="12" fill="#667077" font-weight="400" text-anchor="end">150</text>
<line x1="58" y1="132.7" x2="796" y2="132.7" stroke="#e5ddd4" stroke-dasharray="4 6"/>
<text x="48.0" y="137.7" font-size="12" fill="#667077" font-weight="400" text-anchor="end">200</text>
<line x1="58" y1="91.6" x2="796" y2="91.6" stroke="#e5ddd4" stroke-dasharray="4 6"/>
<text x="48.0" y="96.6" font-size="12" fill="#667077" font-weight="400" text-anchor="end">250</text>
<line x1="58" y1="50.4" x2="796" y2="50.4" stroke="#e5ddd4" stroke-dasharray="4 6"/>
<text x="48.0" y="55.4" font-size="12" fill="#667077" font-weight="400" text-anchor="end">300</text>
<line x1="58.0" y1="256" x2="58.0" y2="261" stroke="#3a4146"/>
<text x="58.0" y="280.0" font-size="12" fill="#667077" font-weight="500" text-anchor="middle">1900</text>
<line x1="176.1" y1="256" x2="176.1" y2="261" stroke="#3a4146"/>
<text x="176.1" y="280.0" font-size="12" fill="#667077" font-weight="500" text-anchor="middle">1920</text>
<line x1="294.2" y1="256" x2="294.2" y2="261" stroke="#3a4146"/>
<text x="294.2" y="280.0" font-size="12" fill="#667077" font-weight="500" text-anchor="middle">1940</text>
<line x1="412.2" y1="256" x2="412.2" y2="261" stroke="#3a4146"/>
<text x="412.2" y="280.0" font-size="12" fill="#667077" font-weight="500" text-anchor="middle">1960</text>
<line x1="530.3" y1="256" x2="530.3" y2="261" stroke="#3a4146"/>
<text x="530.3" y="280.0" font-size="12" fill="#667077" font-weight="500" text-anchor="middle">1980</text>
<line x1="648.4" y1="256" x2="648.4" y2="261" stroke="#3a4146"/>
<text x="648.4" y="280.0" font-size="12" fill="#667077" font-weight="500" text-anchor="middle">2000</text>
<line x1="766.5" y1="256" x2="766.5" y2="261" stroke="#3a4146"/>
<text x="766.5" y="280.0" font-size="12" fill="#667077" font-weight="500" text-anchor="middle">2020</text>
<line x1="58" y1="34" x2="58" y2="256" stroke="#3a4146"/>
<line x1="58" y1="256" x2="796" y2="256" stroke="#3a4146"/>
<polyline points="58.0,214.9 140.7,219.8 164.3,173.8 187.9,229.7 246.9,246.1 341.4,211.6 459.5,206.7 489.0,191.9 530.3,70.2 565.7,177.9 642.5,221.5 695.6,47.2 713.3,70.2 742.9,182.0 778.3,88.3 796.0,163.9" fill="none" stroke="#c2914b" stroke-width="3" stroke-linecap="round" stroke-linejoin="round"/>
<circle cx="164.3" cy="173.8" r="4" fill="#9a6a2c"/>
<text x="172.3" y="161.8" font-size="12" fill="#5d6970" font-weight="650" text-anchor="start">WWI shock</text>
<circle cx="530.3" cy="70.2" r="4" fill="#9a6a2c"/>
<text x="538.3" y="58.2" font-size="12" fill="#5d6970" font-weight="650" text-anchor="start">1970s inflation shock</text>
<circle cx="695.6" cy="47.2" r="4" fill="#9a6a2c"/>
<text x="703.6" y="35.2" font-size="12" fill="#5d6970" font-weight="650" text-anchor="start">China-led boom</text>
<text x="58.0" y="292.0" font-size="11" fill="#667077" font-weight="400" text-anchor="start">Index, 1900=100. Simplified from the supplied commodity cycle chart.</text>
</svg>