<svg xmlns="http://www.w3.org/2000/svg" width="760" height="500" viewBox="0 0 760 500">
<style>text{font-family:Inter,Arial,Helvetica,sans-serif}</style><rect width="100%" height="100%" fill="#fffdf8"/>
<text x="380.0" y="28.0" font-size="21" fill="#182025" font-weight="760" text-anchor="middle">Vintage year matters: VC vintages reset lower</text>
<text x="380.0" y="50.0" font-size="13" fill="#667077" font-weight="400" text-anchor="middle">Unrealized IRR by VC vintage year, 2017-2022; 25th, median, 75th percentiles</text>
<line x1="64" y1="422.0" x2="732" y2="422.0" stroke="#e5ddd4" stroke-dasharray="4 6"/>
<text x="54.0" y="427.0" font-size="12" fill="#667077" font-weight="400" text-anchor="end">-15%</text>
<line x1="64" y1="382.7" x2="732" y2="382.7" stroke="#e5ddd4" stroke-dasharray="4 6"/>
<text x="54.0" y="387.7" font-size="12" fill="#667077" font-weight="400" text-anchor="end">-10%</text>
<line x1="64" y1="343.3" x2="732" y2="343.3" stroke="#e5ddd4" stroke-dasharray="4 6"/>
<text x="54.0" y="348.3" font-size="12" fill="#667077" font-weight="400" text-anchor="end">-5%</text>
<line x1="64" y1="304.0" x2="732" y2="304.0" stroke="#e5ddd4" stroke-dasharray="4 6"/>
<text x="54.0" y="309.0" font-size="12" fill="#667077" font-weight="400" text-anchor="end">0%</text>
<line x1="64" y1="264.7" x2="732" y2="264.7" stroke="#e5ddd4" stroke-dasharray="4 6"/>
<text x="54.0" y="269.7" font-size="12" fill="#667077" font-weight="400" text-anchor="end">5%</text>
<line x1="64" y1="225.3" x2="732" y2="225.3" stroke="#e5ddd4" stroke-dasharray="4 6"/>
<text x="54.0" y="230.3" font-size="12" fill="#667077" font-weight="400" text-anchor="end">10%</text>
<line x1="64" y1="186.0" x2="732" y2="186.0" stroke="#e5ddd4" stroke-dasharray="4 6"/>
<text x="54.0" y="191.0" font-size="12" fill="#667077" font-weight="400" text-anchor="end">15%</text>
<line x1="64" y1="146.7" x2="732" y2="146.7" stroke="#e5ddd4" stroke-dasharray="4 6"/>
<text x="54.0" y="151.7" font-size="12" fill="#667077" font-weight="400" text-anchor="end">20%</text>
<line x1="64" y1="107.3" x2="732" y2="107.3" stroke="#e5ddd4" stroke-dasharray="4 6"/>
<text x="54.0" y="112.3" font-size="12" fill="#667077" font-weight="400" text-anchor="end">25%</text>
<line x1="64" y1="68.0" x2="732" y2="68.0" stroke="#e5ddd4" stroke-dasharray="4 6"/>
<text x="54.0" y="73.0" font-size="12" fill="#667077" font-weight="400" text-anchor="end">30%</text>
<line x1="64" y1="304.0" x2="732" y2="304.0" stroke="#3a4146" stroke-dasharray="5 4"/>
<line x1="64" y1="68" x2="64" y2="422" stroke="#3a4146"/>
<line x1="64" y1="422" x2="732" y2="422" stroke="#3a4146"/>
<rect x="513.0" y="68" width="215.3" height="354" fill="#f8d7da" opacity="0.35"/>
<text x="620.7" y="90.0" font-size="13" fill="#8f302c" font-weight="760" text-anchor="middle">Median below zero</text>
<line x1="119.7" y1="282.0" x2="119.7" y2="134.1" stroke="#c8c8c8" stroke-width="14" stroke-linecap="round"/>
<circle cx="119.7" cy="200.9" r="18" fill="#000000"/>
<text x="119.7" y="205.9" font-size="11" fill="#ffffff" font-weight="760" text-anchor="middle">13.1%</text>
<text x="119.7" y="122.1" font-size="11" fill="#182025" font-weight="500" text-anchor="middle">21.6%</text>
<text x="119.7" y="304.0" font-size="11" fill="#182025" font-weight="500" text-anchor="middle">2.8%</text>
<text x="119.7" y="450.0" font-size="12" fill="#182025" font-weight="500" text-anchor="middle">2017</text>
<line x1="231.0" y1="262.3" x2="231.0" y2="161.6" stroke="#c8c8c8" stroke-width="14" stroke-linecap="round"/>
<circle cx="231.0" cy="209.6" r="18" fill="#000000"/>
<text x="231.0" y="214.6" font-size="11" fill="#ffffff" font-weight="760" text-anchor="middle">12.0%</text>
<text x="231.0" y="149.6" font-size="11" fill="#182025" font-weight="500" text-anchor="middle">18.1%</text>
<text x="231.0" y="284.3" font-size="11" fill="#182025" font-weight="500" text-anchor="middle">5.3%</text>
<text x="231.0" y="450.0" font-size="12" fill="#182025" font-weight="500" text-anchor="middle">2018</text>
<line x1="342.3" y1="304.0" x2="342.3" y2="178.1" stroke="#c8c8c8" stroke-width="14" stroke-linecap="round"/>
<circle cx="342.3" cy="245.8" r="18" fill="#000000"/>
<text x="342.3" y="250.8" font-size="11" fill="#ffffff" font-weight="760" text-anchor="middle">7.4%</text>
<text x="342.3" y="166.1" font-size="11" fill="#182025" font-weight="500" text-anchor="middle">16.0%</text>
<text x="342.3" y="326.0" font-size="11" fill="#182025" font-weight="500" text-anchor="middle">0.0%</text>
<text x="342.3" y="450.0" font-size="12" fill="#182025" font-weight="500" text-anchor="middle">2019</text>
<line x1="453.7" y1="319.7" x2="453.7" y2="182.9" stroke="#c8c8c8" stroke-width="14" stroke-linecap="round"/>
<circle cx="453.7" cy="267.8" r="18" fill="#000000"/>
<text x="453.7" y="272.8" font-size="11" fill="#ffffff" font-weight="760" text-anchor="middle">4.6%</text>
<text x="453.7" y="170.9" font-size="11" fill="#182025" font-weight="500" text-anchor="middle">15.4%</text>
<text x="453.7" y="341.7" font-size="11" fill="#182025" font-weight="500" text-anchor="middle">-2.0%</text>
<text x="453.7" y="450.0" font-size="12" fill="#182025" font-weight="500" text-anchor="middle">2020</text>
<line x1="565.0" y1="355.1" x2="565.0" y2="267.8" stroke="#c8c8c8" stroke-width="14" stroke-linecap="round"/>
<circle cx="565.0" cy="311.1" r="18" fill="#000000"/>
<text x="565.0" y="316.1" font-size="11" fill="#ffffff" font-weight="760" text-anchor="middle">-0.9%</text>
<text x="565.0" y="255.8" font-size="11" fill="#182025" font-weight="500" text-anchor="middle">4.6%</text>
<text x="565.0" y="377.1" font-size="11" fill="#182025" font-weight="500" text-anchor="middle">-6.5%</text>
<text x="565.0" y="450.0" font-size="12" fill="#182025" font-weight="500" text-anchor="middle">2021</text>
<line x1="676.3" y1="406.3" x2="676.3" y2="315.8" stroke="#c8c8c8" stroke-width="14" stroke-linecap="round"/>
<circle cx="676.3" cy="358.3" r="18" fill="#000000"/>
<text x="676.3" y="363.3" font-size="11" fill="#ffffff" font-weight="760" text-anchor="middle">-6.9%</text>
<text x="676.3" y="303.8" font-size="11" fill="#182025" font-weight="500" text-anchor="middle">-1.5%</text>
<text x="676.3" y="428.3" font-size="11" fill="#182025" font-weight="500" text-anchor="middle">-13.0%</text>
<text x="676.3" y="450.0" font-size="12" fill="#182025" font-weight="500" text-anchor="middle">2022</text>
<text x="64.0" y="486.0" font-size="11" fill="#667077" font-weight="400" text-anchor="start">Source: Carta. Based on more than 1,800 VC funds closed from 2017-2022; data as of Q1 2024.</text>
</svg>