<svg xmlns="http://www.w3.org/2000/svg" width="1220" height="560" viewBox="0 0 1220 560">
  <style>
    text{font-family:Inter,Arial,Helvetica,sans-serif}
    .h{fill:#5d6970;font-size:11px;font-weight:760}
    .small{fill:#667077;font-size:9px;font-weight:650}
    .body{fill:#182025;font-size:10.5px;font-weight:500}
    .bold{fill:#182025;font-size:11.5px;font-weight:760}
    .nav{font-size:10.5px;font-weight:760}
    .group{fill:#6b5a46;font-size:11px;font-weight:820;letter-spacing:.04em}
  </style>
  <rect width="100%" height="100%" fill="#fffdf8"/>
  <text x="18" y="28" font-size="22" fill="#182025" font-weight="760">Publicly listed vehicles: understand the wrapper before buying the strategy</text>
  <text x="18" y="50" font-size="11" fill="#667077">Mini charts show IPO/listing-date to latest available market price change, not total return. NAV can be stale for private assets and may diverge sharply from traded price.</text>

  <text x="18" y="80" class="h">Vehicle</text>
  <text x="160" y="80" class="h">IPO/listing to latest price</text>
  <text x="324" y="80" class="h">Strategy / structure</text>
  <text x="590" y="80" class="h">Underlying assets or holdings</text>
  <text x="930" y="80" class="h">Premium / discount to NAV</text>
  <line x1="18" y1="92" x2="1200" y2="92" stroke="#d9cec3"/>

  <rect x="18" y="101" width="1182" height="18" rx="4" fill="#f5eee6"/>
  <text x="28" y="114" class="group">PE / VC LISTED WRAPPERS</text>

  <line x1="18" y1="171" x2="1200" y2="171" stroke="#eee5db"/>
  <text x="18" y="142" font-size="18" fill="#7b3294" font-weight="820">RVI</text>
  <text x="18" y="160" class="small">Robinhood Ventures Fund I</text>
  <rect x="160" y="127" width="118" height="36" rx="4" fill="#fbf7f2" stroke="#eee5db"/>
  <polyline points="160,163 180.3,160.8 200.7,155.9 221,161.3 241.3,153.4 261.7,141.1 282,127" fill="none" stroke="#7b3294" stroke-width="2.5" stroke-linecap="round" stroke-linejoin="round"/>
  <circle cx="282" cy="127" r="3.2" fill="#7b3294"/>
  <text x="160" y="169" class="small">$22 -&gt; $73.71</text>
  <text x="324" y="140" class="bold">NYSE-listed closed-end fund</text>
  <text x="324" y="155" class="body">Retail access to late-stage private-company</text>
  <text x="324" y="168" class="body">shares through a listed CEF wrapper.</text>
  <text x="590" y="137" class="body">OpenAI ($75M investment), Databricks,</text>
  <text x="590" y="151" class="body">Revolut and other private-company / SPV</text>
  <text x="590" y="165" class="body">exposures.</text>
  <text x="930" y="139" class="nav" fill="#8f302c">Latest px $73.71 vs last cited NAV $24.70</text>
  <text x="930" y="154" class="nav" fill="#8f302c">~+198% vs stale NAV</text>

  <line x1="18" y1="226" x2="1200" y2="226" stroke="#eee5db"/>
  <text x="18" y="197" font-size="18" fill="#9a4fb1" font-weight="820">VCX</text>
  <text x="18" y="215" class="small">Fundrise Growth Tech</text>
  <rect x="160" y="182" width="118" height="36" rx="4" fill="#fbf7f2" stroke="#eee5db"/>
  <polyline points="160,218 190.5,182 221,215.1 251.5,210.5 282,203.5" fill="none" stroke="#9a4fb1" stroke-width="2.5" stroke-linecap="round" stroke-linejoin="round"/>
  <circle cx="282" cy="203.5" r="3.2" fill="#9a4fb1"/>
  <text x="160" y="224" class="small">$31 -&gt; $250.00</text>
  <text x="324" y="195" class="bold">Public VC closed-end fund</text>
  <text x="324" y="210" class="body">Listed access to private growth-tech and</text>
  <text x="324" y="223" class="body">AI holdings, with thin trading risk.</text>
  <text x="590" y="192" class="body">Private tech / AI basket including Anthropic,</text>
  <text x="590" y="206" class="body">Databricks, OpenAI, SpaceX, Anduril, Ramp</text>
  <text x="590" y="220" class="body">and other venture-backed companies.</text>
  <text x="930" y="194" class="nav" fill="#8f302c">User-provided: NAV ~$19; px ~$250</text>
  <text x="930" y="209" class="nav" fill="#8f302c">as of 14 May 2026; ~+1,216% premium</text>

  <line x1="18" y1="281" x2="1200" y2="281" stroke="#eee5db"/>
  <text x="18" y="252" font-size="18" fill="#b8860b" font-weight="820">PSUS</text>
  <text x="18" y="270" class="small">Pershing Square USA</text>
  <rect x="160" y="237" width="118" height="36" rx="4" fill="#fbf7f2" stroke="#eee5db"/>
  <polyline points="160,237 221,262.7 282,273" fill="none" stroke="#b8860b" stroke-width="2.5" stroke-linecap="round" stroke-linejoin="round"/>
  <circle cx="282" cy="273" r="3.2" fill="#b8860b"/>
  <text x="160" y="279" class="small">$50 -&gt; $42.98</text>
  <text x="324" y="250" class="bold">Concentrated public-equity CEF</text>
  <text x="324" y="265" class="body">Not pure VC, but a listed permanent-capital</text>
  <text x="324" y="278" class="body">wrapper with activist-style public equity.</text>
  <text x="590" y="247" class="body">Large-cap North American public companies,</text>
  <text x="590" y="261" class="body">with asymmetric macro / event hedges</text>
  <text x="590" y="275" class="body">around selected exposures.</text>
  <text x="930" y="249" class="nav" fill="#5d6970">NAV $48.77; px $42.98</text>
  <text x="930" y="264" class="nav" fill="#5d6970">~12% discount</text>

  <rect x="18" y="295" width="1182" height="18" rx="4" fill="#eef4f0"/>
  <text x="28" y="308" class="group">HEDGE FUND STRATEGIES IN ETF WRAPPERS</text>

  <line x1="18" y1="365" x2="1200" y2="365" stroke="#eee5db"/>
  <text x="18" y="336" font-size="18" fill="#0b61a8" font-weight="820">DBMF</text>
  <text x="18" y="354" class="small">iMGP DBi Managed Futures</text>
  <rect x="160" y="321" width="118" height="36" rx="4" fill="#fbf7f2" stroke="#eee5db"/>
  <polyline points="160,357 184.4,349.8 208.8,346.2 233.2,321 257.6,339 282,334.9" fill="none" stroke="#0b61a8" stroke-width="2.5" stroke-linecap="round" stroke-linejoin="round"/>
  <circle cx="282" cy="334.9" r="3.2" fill="#0b61a8"/>
  <text x="160" y="363" class="small">$25 -&gt; $31.13</text>
  <text x="324" y="334" class="bold">Managed futures / CTA replication</text>
  <text x="324" y="349" class="body">Rules-based ETF seeking trend-following</text>
  <text x="324" y="362" class="body">managed-futures beta.</text>
  <text x="590" y="331" class="body">Long/short futures across equity indexes,</text>
  <text x="590" y="345" class="body">rates, currencies and commodities; futures</text>
  <text x="590" y="359" class="body">contracts drive most exposure.</text>
  <text x="930" y="333" class="nav" fill="#5d6970">ETF structure: generally near NAV</text>
  <text x="930" y="348" class="nav" fill="#5d6970">watch bid-ask / futures liquidity</text>

  <line x1="18" y1="420" x2="1200" y2="420" stroke="#eee5db"/>
  <text x="18" y="391" font-size="18" fill="#1699d6" font-weight="820">MNA</text>
  <text x="18" y="409" class="small">NYLI Merger Arbitrage ETF</text>
  <rect x="160" y="376" width="118" height="36" rx="4" fill="#fbf7f2" stroke="#eee5db"/>
  <polyline points="160,412 190.5,398.8 221,392.2 251.5,385.5 282,376" fill="none" stroke="#1699d6" stroke-width="2.5" stroke-linecap="round" stroke-linejoin="round"/>
  <circle cx="282" cy="376" r="3.2" fill="#1699d6"/>
  <text x="160" y="418" class="small">$25 -&gt; $35.90</text>
  <text x="324" y="389" class="bold">Event-driven merger arbitrage</text>
  <text x="324" y="404" class="body">Invests around announced M&amp;A deals to</text>
  <text x="324" y="417" class="body">earn deal-spread risk premium.</text>
  <text x="590" y="386" class="body">Announced deal targets, acquirer hedges,</text>
  <text x="590" y="400" class="body">cash equivalents and short-duration</text>
  <text x="590" y="414" class="body">collateral-like exposures.</text>
  <text x="930" y="388" class="nav" fill="#5d6970">ETF structure: generally near NAV</text>
  <text x="930" y="403" class="nav" fill="#5d6970">deal-break risk matters more</text>

  <line x1="18" y1="475" x2="1200" y2="475" stroke="#eee5db"/>
  <text x="18" y="446" font-size="18" fill="#3c9f91" font-weight="820">QAI</text>
  <text x="18" y="464" class="small">NYLI Hedge Multi-Strategy</text>
  <rect x="160" y="431" width="118" height="36" rx="4" fill="#fbf7f2" stroke="#eee5db"/>
  <polyline points="160,467 184.4,457.2 208.8,450.6 233.2,444.1 257.6,437.5 282,431" fill="none" stroke="#3c9f91" stroke-width="2.5" stroke-linecap="round" stroke-linejoin="round"/>
  <circle cx="282" cy="431" r="3.2" fill="#3c9f91"/>
  <text x="160" y="473" class="small">$25 -&gt; $36.00</text>
  <text x="324" y="444" class="bold">Hedge-fund replication via ETFs</text>
  <text x="324" y="459" class="body">Multi-strategy proxy built from liquid ETF</text>
  <text x="324" y="472" class="body">holdings rather than private hedge funds.</text>
  <text x="590" y="441" class="body">ETF basket: floaters, developed equities,</text>
  <text x="590" y="455" class="body">senior loans, short Treasuries, small caps,</text>
  <text x="590" y="469" class="body">momentum and convertibles.</text>
  <text x="930" y="443" class="nav" fill="#5d6970">ETF structure: generally near NAV</text>
  <text x="930" y="458" class="nav" fill="#5d6970">underlying ETFs are liquid</text>

  <line x1="18" y1="530" x2="1200" y2="530" stroke="#eee5db"/>
  <text x="18" y="501" font-size="18" fill="#865ed6" font-weight="820">GVIP</text>
  <text x="18" y="519" class="small">Goldman Sachs Hedge VIP</text>
  <rect x="160" y="486" width="118" height="36" rx="4" fill="#fbf7f2" stroke="#eee5db"/>
  <polyline points="160,522 184.4,512.5 208.8,497.3 233.2,504.9 257.6,493.5 282,486" fill="none" stroke="#865ed6" stroke-width="2.5" stroke-linecap="round" stroke-linejoin="round"/>
  <circle cx="282" cy="486" r="3.2" fill="#865ed6"/>
  <text x="160" y="528" class="small">$25 -&gt; $44.00</text>
  <text x="324" y="499" class="bold">Hedge-fund 13F "best ideas"</text>
  <text x="324" y="514" class="body">Tracks popular long equity positions from</text>
  <text x="324" y="527" class="body">hedge fund public filings.</text>
  <text x="590" y="496" class="body">U.S. public equities most frequently held</text>
  <text x="590" y="510" class="body">by hedge funds as high-conviction long</text>
  <text x="590" y="524" class="body">positions.</text>
  <text x="930" y="498" class="nav" fill="#5d6970">ETF structure: generally near NAV</text>
  <text x="930" y="513" class="nav" fill="#5d6970">equity beta can dominate</text>
</svg>
