<svg xmlns="http://www.w3.org/2000/svg" width="620" height="250" viewBox="0 0 620 250">
  <style>
    text{font-family:Inter,Arial,Helvetica,sans-serif}
    .title{font-size:18px;font-weight:780;fill:#1d2429}
    .sub{font-size:11px;fill:#667077}
    .axis{font-size:10px;fill:#667077}
    .legend{font-size:11px;fill:#5d6970}
  </style>
  <rect width="620" height="250" rx="8" fill="#fff7ed"/>
  <text x="18" y="26" class="title">Quant funds are taking up market share</text>
  <text x="18" y="48" class="sub">Quantitative and discretionary hedge fund assets under management, simplified from HFR / FT chart ($bn)</text>
  <g stroke="#e2d4c6" stroke-width="1">
    <line x1="58" y1="216" x2="584" y2="216"/>
    <line x1="58" y1="180.5" x2="584" y2="180.5" stroke-dasharray="2 4"/>
    <line x1="58" y1="145" x2="584" y2="145" stroke-dasharray="2 4"/>
    <line x1="58" y1="109.5" x2="584" y2="109.5" stroke-dasharray="2 4"/>
    <line x1="58" y1="74" x2="584" y2="74" stroke-dasharray="2 4"/>
  </g>
  <g class="axis">
    <text x="44" y="219" text-anchor="end">0</text>
    <text x="44" y="183.5" text-anchor="end">750</text>
    <text x="44" y="148" text-anchor="end">1500</text>
    <text x="44" y="112.5" text-anchor="end">2250</text>
    <text x="44" y="77" text-anchor="end">3000</text>
  </g>
  <g>
    <rect x="58" y="213.9" width="11" height="2.1" fill="#b86783"/><rect x="58" y="213.6" width="11" height="0.2" fill="#eda7b6"/>
    <rect x="77.8" y="213.1" width="11" height="2.9" fill="#b86783"/><rect x="77.8" y="212.7" width="11" height="0.4" fill="#eda7b6"/>
    <rect x="97.6" y="212.1" width="11" height="3.9" fill="#b86783"/><rect x="97.6" y="211.5" width="11" height="0.6" fill="#eda7b6"/>
    <rect x="117.4" y="210.7" width="11" height="5.3" fill="#b86783"/><rect x="117.4" y="209.8" width="11" height="0.9" fill="#eda7b6"/>
    <rect x="137.2" y="209.8" width="11" height="6.2" fill="#b86783"/><rect x="137.2" y="208.9" width="11" height="0.9" fill="#eda7b6"/>
    <rect x="157" y="207.2" width="11" height="8.8" fill="#b86783"/><rect x="157" y="205.6" width="11" height="1.7" fill="#eda7b6"/>
    <rect x="176.8" y="203.9" width="11" height="12.1" fill="#b86783"/><rect x="176.8" y="201.3" width="11" height="2.6" fill="#eda7b6"/>
    <rect x="196.7" y="202.3" width="11" height="13.7" fill="#b86783"/><rect x="196.7" y="199" width="11" height="3.3" fill="#eda7b6"/>
    <rect x="216.5" y="202" width="11" height="14" fill="#b86783"/><rect x="216.5" y="198.5" width="11" height="3.5" fill="#eda7b6"/>
    <rect x="236.3" y="198.3" width="11" height="17.8" fill="#b86783"/><rect x="236.3" y="193.8" width="11" height="4.5" fill="#eda7b6"/>
    <rect x="256.1" y="192.8" width="11" height="23.2" fill="#b86783"/><rect x="256.1" y="186.7" width="11" height="6.2" fill="#eda7b6"/>
    <rect x="275.9" y="190" width="11" height="26" fill="#b86783"/><rect x="275.9" y="182.9" width="11" height="7.1" fill="#eda7b6"/>
    <rect x="295.7" y="186.2" width="11" height="29.8" fill="#b86783"/><rect x="295.7" y="177.2" width="11" height="9" fill="#eda7b6"/>
    <rect x="315.5" y="182.4" width="11" height="33.6" fill="#b86783"/><rect x="315.5" y="170.6" width="11" height="11.8" fill="#eda7b6"/>
    <rect x="335.3" y="174.3" width="11" height="41.7" fill="#b86783"/><rect x="335.3" y="159.2" width="11" height="15.1" fill="#eda7b6"/>
    <rect x="355.1" y="165.4" width="11" height="50.6" fill="#b86783"/><rect x="355.1" y="145" width="11" height="20.4" fill="#eda7b6"/>
    <rect x="374.9" y="153" width="11" height="63" fill="#b86783"/><rect x="374.9" y="128.4" width="11" height="24.6" fill="#eda7b6"/>
    <rect x="394.7" y="167.7" width="11" height="48.3" fill="#b86783"/><rect x="394.7" y="152.1" width="11" height="15.6" fill="#eda7b6"/>
    <rect x="414.5" y="160.6" width="11" height="55.4" fill="#b86783"/><rect x="414.5" y="140.3" width="11" height="20.4" fill="#eda7b6"/>
    <rect x="434.3" y="152.1" width="11" height="63.9" fill="#b86783"/><rect x="434.3" y="128.4" width="11" height="23.7" fill="#eda7b6"/>
    <rect x="454.2" y="148.3" width="11" height="67.7" fill="#b86783"/><rect x="454.2" y="123.7" width="11" height="24.6" fill="#eda7b6"/>
    <rect x="474" y="136" width="11" height="80" fill="#b86783"/><rect x="474" y="109.5" width="11" height="26.5" fill="#eda7b6"/>
    <rect x="493.8" y="131.7" width="11" height="84.3" fill="#b86783"/><rect x="493.8" y="102.4" width="11" height="29.3" fill="#eda7b6"/>
    <rect x="513.6" y="128.4" width="11" height="87.6" fill="#b86783"/><rect x="513.6" y="97.7" width="11" height="30.8" fill="#eda7b6"/>
    <rect x="533.4" y="122.3" width="11" height="93.7" fill="#b86783"/><rect x="533.4" y="88.2" width="11" height="34.1" fill="#eda7b6"/>
    <rect x="553.2" y="118" width="11" height="98" fill="#b86783"/><rect x="553.2" y="81.1" width="11" height="36.9" fill="#eda7b6"/>
    <rect x="573" y="114.2" width="11" height="101.8" fill="#b86783"/><rect x="573" y="74" width="11" height="40.2" fill="#eda7b6"/>
  </g>
  <g class="axis">
    <text x="58" y="237">1990</text><text x="176.8" y="237">96</text><text x="256.1" y="237">00</text><text x="335.3" y="237">04</text><text x="414.5" y="237">08</text><text x="493.8" y="237">12</text><text x="573" y="237">16</text>
  </g>
  <rect x="82" y="92" width="12" height="8" fill="#b86783"/><text x="100" y="100" class="legend">Discretionary strategies</text>
  <rect x="82" y="108" width="12" height="8" fill="#eda7b6"/><text x="100" y="116" class="legend">Quant strategies</text>
</svg>
