<svg xmlns="http://www.w3.org/2000/svg" width="820" height="300" viewBox="0 0 820 300">
<style>text{font-family:Inter,Arial,Helvetica,sans-serif}</style><rect width="100%" height="100%" fill="#fffdf8"/>
<text x="58.0" y="22.0" font-size="18" fill="#182025" font-weight="760" text-anchor="start">Gold returns are uneven and concentrated in regime-shift decades</text>
<line x1="58" y1="248.0" x2="796" y2="248.0" stroke="#e5ddd4" stroke-dasharray="4 6"/>
<text x="48.0" y="253.0" font-size="12" fill="#667077" font-weight="400" text-anchor="end">-10%</text>
<line x1="58" y1="200.4" x2="796" y2="200.4" stroke="#e5ddd4" stroke-dasharray="4 6"/>
<text x="48.0" y="205.4" font-size="12" fill="#667077" font-weight="400" text-anchor="end">0%</text>
<line x1="58" y1="152.9" x2="796" y2="152.9" stroke="#e5ddd4" stroke-dasharray="4 6"/>
<text x="48.0" y="157.9" font-size="12" fill="#667077" font-weight="400" text-anchor="end">10%</text>
<line x1="58" y1="105.3" x2="796" y2="105.3" stroke="#e5ddd4" stroke-dasharray="4 6"/>
<text x="48.0" y="110.3" font-size="12" fill="#667077" font-weight="400" text-anchor="end">20%</text>
<line x1="58" y1="57.8" x2="796" y2="57.8" stroke="#e5ddd4" stroke-dasharray="4 6"/>
<text x="48.0" y="62.8" font-size="12" fill="#667077" font-weight="400" text-anchor="end">30%</text>
<line x1="58" y1="200.4" x2="796" y2="200.4" stroke="#aeb5b8"/>
<line x1="58" y1="34" x2="58" y2="248" stroke="#3a4146"/>
<rect x="89.8" y="49.2" width="18" height="151.2" fill="#ffc20a"/>
<rect x="114.1" y="155.7" width="18" height="44.7" fill="#7b0000"/>
<rect x="138.4" y="118.2" width="18" height="82.3" fill="#a7a7a7"/>
<rect x="162.7" y="172.9" width="18" height="27.6" fill="#c6924a"/>
<text x="131.8" y="273.0" font-size="12" fill="#182025" font-weight="500" text-anchor="middle">1971-1980</text>
<rect x="237.4" y="200.4" width="18" height="20.0" fill="#ffc20a"/>
<rect x="261.7" y="107.7" width="18" height="92.7" fill="#7b0000"/>
<rect x="286.0" y="133.9" width="18" height="66.6" fill="#a7a7a7"/>
<rect x="310.3" y="142.9" width="18" height="57.5" fill="#c6924a"/>
<text x="279.4" y="273.0" font-size="12" fill="#182025" font-weight="500" text-anchor="middle">1981-1990</text>
<rect x="385.0" y="200.4" width="18" height="16.2" fill="#ffc20a"/>
<rect x="409.3" y="118.6" width="18" height="81.8" fill="#7b0000"/>
<rect x="433.6" y="157.2" width="18" height="43.3" fill="#a7a7a7"/>
<rect x="457.9" y="148.1" width="18" height="52.3" fill="#c6924a"/>
<text x="427.0" y="273.0" font-size="12" fill="#182025" font-weight="500" text-anchor="middle">1991-2000</text>
<rect x="532.6" y="115.8" width="18" height="84.6" fill="#ffc20a"/>
<rect x="556.9" y="187.1" width="18" height="13.3" fill="#7b0000"/>
<rect x="581.2" y="156.7" width="18" height="43.8" fill="#a7a7a7"/>
<rect x="605.5" y="174.3" width="18" height="26.2" fill="#c6924a"/>
<text x="574.6" y="273.0" font-size="12" fill="#182025" font-weight="500" text-anchor="middle">2001-2010</text>
<rect x="680.2" y="186.7" width="18" height="13.8" fill="#ffc20a"/>
<rect x="704.5" y="161.4" width="18" height="39.0" fill="#7b0000"/>
<rect x="728.8" y="170.0" width="18" height="30.4" fill="#a7a7a7"/>
<rect x="753.1" y="172.4" width="18" height="28.1" fill="#c6924a"/>
<text x="722.2" y="273.0" font-size="12" fill="#182025" font-weight="500" text-anchor="middle">2011-2020</text>
<ellipse cx="131.8" cy="141.0" rx="70" ry="103" fill="none" stroke="#d62728" stroke-width="2" stroke-dasharray="8 7"/>
<ellipse cx="574.6" cy="141.0" rx="70" ry="103" fill="none" stroke="#d62728" stroke-width="2" stroke-dasharray="8 7"/>
<rect x="308" y="37" width="12" height="12" fill="#ffc20a"/>
<text x="326.0" y="48.0" font-size="12" fill="#182025" font-weight="650" text-anchor="start">Gold</text>
<rect x="434" y="37" width="12" height="12" fill="#7b0000"/>
<text x="452.0" y="48.0" font-size="12" fill="#182025" font-weight="650" text-anchor="start">U.S. Equities</text>
<rect x="560" y="37" width="12" height="12" fill="#a7a7a7"/>
<text x="578.0" y="48.0" font-size="12" fill="#182025" font-weight="650" text-anchor="start">U.S. Real Estate</text>
<rect x="686" y="37" width="12" height="12" fill="#c6924a"/>
<text x="704.0" y="48.0" font-size="12" fill="#182025" font-weight="650" text-anchor="start">U.S. Bonds</text>
<text x="58.0" y="292.0" font-size="11" fill="#667077" font-weight="400" text-anchor="start">Annualized returns by decade; simplified from the supplied gold regime chart.</text>
</svg>