<svg xmlns="http://www.w3.org/2000/svg" width="1000" height="600" viewBox="0 0 1000 600">
<style>text{font-family:Inter,Arial,Helvetica,sans-serif}</style>
<rect width="100%" height="100%" fill="#fffdf8"/>
<text x="78.0" y="28.0" font-size="24" fill="#182025" font-weight="760" text-anchor="start" >Alternatives and portfolio risk/return</text>
<text x="78.0" y="52.0" font-size="16" fill="#5d6970" font-weight="500" text-anchor="start" >Annualized volatility and returns, 1Q90-2Q24</text>
<text x="78.0" y="76.0" font-size="14" fill="#5d6970" font-weight="700" text-anchor="start" >Alternatives = equal-weight hedge funds, real estate, and private equity</text>
<line x1="78" y1="488.0" x2="952" y2="488.0" stroke="#e5e8e8"/>
<text x="64.0" y="493.0" font-size="15" fill="#5d6970" font-weight="500" text-anchor="end" >6%</text>
<line x1="78" y1="390.0" x2="952" y2="390.0" stroke="#e5e8e8"/>
<text x="64.0" y="395.0" font-size="15" fill="#5d6970" font-weight="500" text-anchor="end" >7%</text>
<line x1="78" y1="292.0" x2="952" y2="292.0" stroke="#e5e8e8"/>
<text x="64.0" y="297.0" font-size="15" fill="#5d6970" font-weight="500" text-anchor="end" >8%</text>
<line x1="78" y1="194.0" x2="952" y2="194.0" stroke="#e5e8e8"/>
<text x="64.0" y="199.0" font-size="15" fill="#5d6970" font-weight="500" text-anchor="end" >9%</text>
<line x1="78" y1="96.0" x2="952" y2="96.0" stroke="#e5e8e8"/>
<text x="64.0" y="101.0" font-size="15" fill="#5d6970" font-weight="500" text-anchor="end" >10%</text>
<line x1="78.0" y1="488" x2="78.0" y2="494" stroke="#3a4146"/>
<text x="78.0" y="516.0" font-size="15" fill="#5d6970" font-weight="500" text-anchor="middle" >6%</text>
<line x1="202.9" y1="488" x2="202.9" y2="494" stroke="#3a4146"/>
<text x="202.9" y="516.0" font-size="15" fill="#5d6970" font-weight="500" text-anchor="middle" >7%</text>
<line x1="327.7" y1="488" x2="327.7" y2="494" stroke="#3a4146"/>
<text x="327.7" y="516.0" font-size="15" fill="#5d6970" font-weight="500" text-anchor="middle" >8%</text>
<line x1="452.6" y1="488" x2="452.6" y2="494" stroke="#3a4146"/>
<text x="452.6" y="516.0" font-size="15" fill="#5d6970" font-weight="500" text-anchor="middle" >9%</text>
<line x1="577.4" y1="488" x2="577.4" y2="494" stroke="#3a4146"/>
<text x="577.4" y="516.0" font-size="15" fill="#5d6970" font-weight="500" text-anchor="middle" >10%</text>
<line x1="702.3" y1="488" x2="702.3" y2="494" stroke="#3a4146"/>
<text x="702.3" y="516.0" font-size="15" fill="#5d6970" font-weight="500" text-anchor="middle" >11%</text>
<line x1="827.1" y1="488" x2="827.1" y2="494" stroke="#3a4146"/>
<text x="827.1" y="516.0" font-size="15" fill="#5d6970" font-weight="500" text-anchor="middle" >12%</text>
<line x1="952.0" y1="488" x2="952.0" y2="494" stroke="#3a4146"/>
<text x="952.0" y="516.0" font-size="15" fill="#5d6970" font-weight="500" text-anchor="middle" >13%</text>
<line x1="78" y1="96" x2="78" y2="488" stroke="#3a4146" stroke-width="2"/>
<line x1="78" y1="488" x2="952" y2="488" stroke="#3a4146" stroke-width="2"/>
<text x="30" y="292.0" transform="rotate(-90 30 292.0)" font-size="16" fill="#182025" font-weight="700" text-anchor="middle">Annualized returns</text>
<text x="515.0" y="580.0" font-size="16" fill="#182025" font-weight="700" text-anchor="middle" >Annualized volatility</text>
<defs><marker id="arrow" viewBox="0 0 10 10" refX="8" refY="5" markerWidth="5" markerHeight="5" orient="auto-start-reverse"><path d="M 0 0 L 10 5 L 0 10 z" fill="#25292c"/></marker></defs>
<line x1="185.4" y1="293.2" x2="164.4" y2="239.0" stroke="#25292c" stroke-width="1.8" marker-end="url(#arrow)" opacity="0.75"/>
<line x1="521.2" y1="207.7" x2="341.2" y2="182.2" stroke="#25292c" stroke-width="1.8" marker-end="url(#arrow)" opacity="0.75"/>
<line x1="889.6" y1="113.6" x2="536.5" y2="139.2" stroke="#25292c" stroke-width="1.8" marker-end="url(#arrow)" opacity="0.75"/>
<path d="M 190.4 331.2 L 190.4 306.2 A 25.0 25.0 0 0 1 205.1 351.4 Z" fill="#7ba52a" stroke="#fffdf8" stroke-width="2"/>
<path d="M 190.4 331.2 L 205.1 351.4 A 25.0 25.0 0 1 1 190.4 306.2 Z" fill="#1597e5" stroke="#fffdf8" stroke-width="2"/>
<circle cx="190.4" cy="331.2" r="25.0" fill="none" stroke="#f5f1eb" stroke-width="1"/>
<rect x="188.0" y="301.0" width="128" height="54" rx="4" fill="#fffdf8" opacity="0.88"/>
<text x="194.0" y="318.0" font-size="14" fill="#7ba52a" font-weight="760" text-anchor="start" >40% Equities</text>
<text x="194.0" y="338.0" font-size="14" fill="#1597e5" font-weight="760" text-anchor="start" >60% Bonds</text>
<path d="M 540.0 223.4 L 540.0 198.4 A 25.0 25.0 0 1 1 525.3 243.6 Z" fill="#7ba52a" stroke="#fffdf8" stroke-width="2"/>
<path d="M 540.0 223.4 L 525.3 243.6 A 25.0 25.0 0 0 1 540.0 198.4 Z" fill="#1597e5" stroke="#fffdf8" stroke-width="2"/>
<circle cx="540.0" cy="223.4" r="25.0" fill="none" stroke="#f5f1eb" stroke-width="1"/>
<line x1="642.0" y1="288.0" x2="540.0" y2="223.4" stroke="#aeb5b8" stroke-width="1" stroke-dasharray="3 4"/>
<rect x="636.0" y="261.0" width="128" height="54" rx="4" fill="#fffdf8" opacity="0.88"/>
<text x="642.0" y="278.0" font-size="14" fill="#7ba52a" font-weight="760" text-anchor="start" >60% Equities</text>
<text x="642.0" y="298.0" font-size="14" fill="#1597e5" font-weight="760" text-anchor="start" >40% Bonds</text>
<path d="M 914.5 125.4 L 914.5 100.4 A 25.0 25.0 0 1 1 890.8 117.7 Z" fill="#7ba52a" stroke="#fffdf8" stroke-width="2"/>
<path d="M 914.5 125.4 L 890.8 117.7 A 25.0 25.0 0 0 1 914.5 100.4 Z" fill="#1597e5" stroke="#fffdf8" stroke-width="2"/>
<circle cx="914.5" cy="125.4" r="25.0" fill="none" stroke="#f5f1eb" stroke-width="1"/>
<line x1="938.0" y1="206.0" x2="914.5" y2="125.4" stroke="#aeb5b8" stroke-width="1" stroke-dasharray="3 4"/>
<rect x="814.0" y="179.0" width="128" height="54" rx="4" fill="#fffdf8" opacity="0.88"/>
<text x="820.0" y="196.0" font-size="14" fill="#7ba52a" font-weight="760" text-anchor="start" >80% Equities</text>
<text x="820.0" y="216.0" font-size="14" fill="#1597e5" font-weight="760" text-anchor="start" >20% Bonds</text>
<path d="M 140.4 243.0 L 140.4 218.0 A 25.0 25.0 0 0 1 164.2 250.7 Z" fill="#7ba52a" stroke="#fffdf8" stroke-width="2"/>
<path d="M 140.4 243.0 L 164.2 250.7 A 25.0 25.0 0 0 1 116.7 250.7 Z" fill="#1597e5" stroke="#fffdf8" stroke-width="2"/>
<path d="M 140.4 243.0 L 116.7 250.7 A 25.0 25.0 0 0 1 140.4 218.0 Z" fill="#54595c" stroke="#fffdf8" stroke-width="2"/>
<circle cx="140.4" cy="243.0" r="25.0" fill="none" stroke="#f5f1eb" stroke-width="1"/>
<line x1="216.0" y1="180.0" x2="140.4" y2="243.0" stroke="#aeb5b8" stroke-width="1" stroke-dasharray="3 4"/>
<rect x="92.0" y="145.0" width="126" height="72" rx="4" fill="#fffdf8" opacity="0.88"/>
<text x="98.0" y="162.0" font-size="14" fill="#7ba52a" font-weight="760" text-anchor="start" >30% Equities</text>
<text x="98.0" y="182.0" font-size="14" fill="#1597e5" font-weight="760" text-anchor="start" >40% Bonds</text>
<text x="98.0" y="202.0" font-size="14" fill="#54595c" font-weight="760" text-anchor="start" >30% Alts</text>
<path d="M 315.2 184.2 L 315.2 159.2 A 25.0 25.0 0 0 1 329.9 204.4 Z" fill="#7ba52a" stroke="#fffdf8" stroke-width="2"/>
<path d="M 315.2 184.2 L 329.9 204.4 A 25.0 25.0 0 0 1 291.5 191.9 Z" fill="#1597e5" stroke="#fffdf8" stroke-width="2"/>
<path d="M 315.2 184.2 L 291.5 191.9 A 25.0 25.0 0 0 1 315.2 159.2 Z" fill="#54595c" stroke="#fffdf8" stroke-width="2"/>
<circle cx="315.2" cy="184.2" r="25.0" fill="none" stroke="#f5f1eb" stroke-width="1"/>
<line x1="402.0" y1="144.0" x2="315.2" y2="184.2" stroke="#aeb5b8" stroke-width="1" stroke-dasharray="3 4"/>
<rect x="278.0" y="109.0" width="126" height="72" rx="4" fill="#fffdf8" opacity="0.88"/>
<text x="284.0" y="126.0" font-size="14" fill="#7ba52a" font-weight="760" text-anchor="start" >40% Equities</text>
<text x="284.0" y="146.0" font-size="14" fill="#1597e5" font-weight="760" text-anchor="start" >30% Bonds</text>
<text x="284.0" y="166.0" font-size="14" fill="#54595c" font-weight="760" text-anchor="start" >30% Alts</text>
<path d="M 502.5 135.2 L 502.5 110.2 A 25.0 25.0 0 0 1 502.5 160.2 Z" fill="#7ba52a" stroke="#fffdf8" stroke-width="2"/>
<path d="M 502.5 135.2 L 502.5 160.2 A 25.0 25.0 0 0 1 478.7 142.9 Z" fill="#1597e5" stroke="#fffdf8" stroke-width="2"/>
<path d="M 502.5 135.2 L 478.7 142.9 A 25.0 25.0 0 0 1 502.5 110.2 Z" fill="#54595c" stroke="#fffdf8" stroke-width="2"/>
<circle cx="502.5" cy="135.2" r="25.0" fill="none" stroke="#f5f1eb" stroke-width="1"/>
<rect x="510.0" y="95.0" width="126" height="72" rx="4" fill="#fffdf8" opacity="0.88"/>
<text x="516.0" y="112.0" font-size="14" fill="#7ba52a" font-weight="760" text-anchor="start" >50% Equities</text>
<text x="516.0" y="132.0" font-size="14" fill="#1597e5" font-weight="760" text-anchor="start" >20% Bonds</text>
<text x="516.0" y="152.0" font-size="14" fill="#54595c" font-weight="760" text-anchor="start" >30% Alts</text>
<rect x="548" y="356" width="398" height="116" fill="#fffdf8" stroke="#3a4146" stroke-width="1.3"/>
<text x="556.0" y="374.0" font-size="12" fill="#182025" font-weight="760" text-anchor="start" >Portfolio allocation</text>
<text x="806.0" y="374.0" font-size="12" fill="#182025" font-weight="760" text-anchor="middle" >Vol.</text>
<text x="892.0" y="374.0" font-size="12" fill="#182025" font-weight="760" text-anchor="middle" >Return</text>
<line x1="548" y1="381" x2="946" y2="381" stroke="#3a4146"/>
<text x="556.0" y="397.0" font-size="11" fill="#182025" font-weight="400" text-anchor="start" >40 Eq / 60 Bonds</text>
<text x="806.0" y="397.0" font-size="11" fill="#182025" font-weight="400" text-anchor="middle" >6.9%</text>
<text x="892.0" y="397.0" font-size="11" fill="#182025" font-weight="400" text-anchor="middle" >7.6%</text>
<text x="556.0" y="410.8" font-size="11" fill="#182025" font-weight="400" text-anchor="start" >60 Eq / 40 Bonds</text>
<text x="806.0" y="410.8" font-size="11" fill="#182025" font-weight="400" text-anchor="middle" >9.7%</text>
<text x="892.0" y="410.8" font-size="11" fill="#182025" font-weight="400" text-anchor="middle" >8.7%</text>
<text x="556.0" y="424.6" font-size="11" fill="#182025" font-weight="400" text-anchor="start" >80 Eq / 20 Bonds</text>
<text x="806.0" y="424.6" font-size="11" fill="#182025" font-weight="400" text-anchor="middle" >12.7%</text>
<text x="892.0" y="424.6" font-size="11" fill="#182025" font-weight="400" text-anchor="middle" >9.7%</text>
<text x="556.0" y="438.4" font-size="11" fill="#182025" font-weight="400" text-anchor="start" >30 Eq / 40 Bonds / 30 Alts</text>
<text x="806.0" y="438.4" font-size="11" fill="#182025" font-weight="400" text-anchor="middle" >6.5%</text>
<text x="892.0" y="438.4" font-size="11" fill="#182025" font-weight="400" text-anchor="middle" >8.5%</text>
<text x="556.0" y="452.2" font-size="11" fill="#182025" font-weight="400" text-anchor="start" >40 Eq / 30 Bonds / 30 Alts</text>
<text x="806.0" y="452.2" font-size="11" fill="#182025" font-weight="400" text-anchor="middle" >7.9%</text>
<text x="892.0" y="452.2" font-size="11" fill="#182025" font-weight="400" text-anchor="middle" >9.1%</text>
<text x="556.0" y="466.0" font-size="11" fill="#182025" font-weight="400" text-anchor="start" >50 Eq / 20 Bonds / 30 Alts</text>
<text x="806.0" y="466.0" font-size="11" fill="#182025" font-weight="400" text-anchor="middle" >9.4%</text>
<text x="892.0" y="466.0" font-size="11" fill="#182025" font-weight="400" text-anchor="middle" >9.6%</text>
<text x="78.0" y="548.0" font-size="12" fill="#667077" font-weight="400" text-anchor="start" >Source: Williams Asset Management</text>
</svg>